<svg id="visual" viewBox="0 0 1280 720" width="1280" height="720" xmlns="http://www.w3.org/2000/svg" xmlns:xlink="http://www.w3.org/1999/xlink" version="1.1"><rect x="0" y="0" width="1280" height="720" fill="#001220"></rect><path d="M0 441L30.5 444.2C61 447.3 122 453.7 183 462.2C244 470.7 305 481.3 366 488.2C427 495 488 498 548.8 487.5C609.7 477 670.3 453 731.2 447.5C792 442 853 455 914 455C975 455 1036 442 1097 441.2C1158 440.3 1219 451.7 1249.5 457.3L1280 463L1280 721L1249.5 721C1219 721 1158 721 1097 721C1036 721 975 721 914 721C853 721 792 721 731.2 721C670.3 721 609.7 721 548.8 721C488 721 427 721 366 721C305 721 244 721 183 721C122 721 61 721 30.5 721L0 721Z" fill="#fa7268"></path><path d="M0 512L30.5 518.7C61 525.3 122 538.7 183 547.7C244 556.7 305 561.3 366 554.2C427 547 488 528 548.8 525.2C609.7 522.3 670.3 535.7 731.2 532.2C792 528.7 853 508.3 914 508.7C975 509 1036 530 1097 537C1158 544 1219 537 1249.5 533.5L1280 530L1280 721L1249.5 721C1219 721 1158 721 1097 721C1036 721 975 721 914 721C853 721 792 721 731.2 721C670.3 721 609.7 721 548.8 721C488 721 427 721 366 721C305 721 244 721 183 721C122 721 61 721 30.5 721L0 721Z" fill="#ef5f67"></path><path d="M0 604L30.5 593.7C61 583.3 122 562.7 183 550C244 537.3 305 532.7 366 530.2C427 527.7 488 527.3 548.8 535C609.7 542.7 670.3 558.3 731.2 564.8C792 571.3 853 568.7 914 566.7C975 564.7 1036 563.3 1097 567.2C1158 571 1219 580 1249.5 584.5L1280 589L1280 721L1249.5 721C1219 721 1158 721 1097 721C1036 721 975 721 914 721C853 721 792 721 731.2 721C670.3 721 609.7 721 548.8 721C488 721 427 721 366 721C305 721 244 721 183 721C122 721 61 721 30.5 721L0 721Z" fill="#e34c67"></path><path d="M0 584L30.5 585.8C61 587.7 122 591.3 183 592C244 592.7 305 590.3 366 598.2C427 606 488 624 548.8 628.8C609.7 633.7 670.3 625.3 731.2 625.8C792 626.3 853 635.7 914 629.7C975 623.7 1036 602.3 1097 591.8C1158 581.3 1219 581.7 1249.5 581.8L1280 582L1280 721L1249.5 721C1219 721 1158 721 1097 721C1036 721 975 721 914 721C853 721 792 721 731.2 721C670.3 721 609.7 721 548.8 721C488 721 427 721 366 721C305 721 244 721 183 721C122 721 61 721 30.5 721L0 721Z" fill="#d53867"></path><path d="M0 655L30.5 652.7C61 650.3 122 645.7 183 643C244 640.3 305 639.7 366 641.7C427 643.7 488 648.3 548.8 655.3C609.7 662.3 670.3 671.7 731.2 669.7C792 667.7 853 654.3 914 648.8C975 643.3 1036 645.7 1097 652.2C1158 658.7 1219 669.3 1249.5 674.7L1280 680L1280 721L1249.5 721C1219 721 1158 721 1097 721C1036 721 975 721 914 721C853 721 792 721 731.2 721C670.3 721 609.7 721 548.8 721C488 721 427 721 366 721C305 721 244 721 183 721C122 721 61 721 30.5 721L0 721Z" fill="#c62368"></path></svg>